<svg fill="gray" viewBox="0 0 1000 1000" xmlns="http://www.w3.org/2000/svg">
<path d="M745,407.8c0-84.4-82.3-152.8-183.8-152.8c-101.4,0-183.8,68.4-183.8,152.8c0,84.4,82.3,152.8,183.8,152.8c33.5,0,73.5-14.9,73.5-14.9l101.1,46.1l-21.5-98.2C714.3,493.6,745,445.2,745,407.8z M636,512.6l-11.9,4.4c-9.8,3.6-40.1,13-62.9,13c-84.4,0-153.1-54.8-153.1-122.1s68.7-122.1,153.1-122.1c84.4,0,153.1,54.8,153.1,122.1c0,20.5-15.8,53.5-25.9,69.5l-6.7,10.6l11.1,50.6L636,512.6z"/>
<path d="M438.8,683.2c-22.8,0-53.1-9.4-62.9-13l-11.8-4.4l-56.9,25.9l11.1-50.6l-6.7-10.6c-10-15.9-25.9-48.9-25.9-69.5c0-42.8,27.9-80.4,69.9-102.2c-3.3-9.9-5.9-20.2-7.2-30.7C292.6,454.4,255,504,255,561c0,37.3,30.6,85.8,30.6,85.8L264.2,745l101.1-46.1c0,0,40,14.9,73.5,14.9c92.7,0,169.2-57.9,181.7-131.6c-9.6,2.6-21,5.1-33.1,6.8C571.4,642.9,511.1,683.2,438.8,683.2z"/>
</svg>