<svg width="20" height="20" viewBox="0 0 20 20" fill="none" xmlns="http://www.w3.org/2000/svg">
<path d="M20 19.3164C20 19.4987 19.9447 19.6582 19.834 19.7949C19.7233 19.9316 19.5703 20 19.375 20C19.2057 20 19.0592 19.9382 18.9355 19.8145L11.2695 12.1582C10.6445 12.6725 9.96094 13.0664 9.21875 13.3398C8.47656 13.6133 7.69531 13.75 6.875 13.75C6.24349 13.75 5.63477 13.6686 5.04883 13.5059C4.46289 13.3431 3.91602 13.112 3.4082 12.8125C2.90039 12.513 2.43815 12.1549 2.02148 11.7383C1.60482 11.3216 1.24349 10.8561 0.9375 10.3418C0.63151 9.82747 0.400391 9.2806 0.244141 8.70117C0.0878906 8.12175 0.00651042 7.51302 0 6.875C0 6.24349 0.0813802 5.63477 0.244141 5.04883C0.406901 4.46289 0.638021 3.91602 0.9375 3.4082C1.23698 2.90039 1.59505 2.43815 2.01172 2.02148C2.42839 1.60482 2.89388 1.24349 3.4082 0.9375C3.92253 0.63151 4.4694 0.400391 5.04883 0.244141C5.62826 0.0878906 6.23698 0.00651042 6.875 0C7.50651 0 8.11523 0.0813802 8.70117 0.244141C9.28711 0.406901 9.83398 0.638021 10.3418 0.9375C10.8496 1.23698 11.3118 1.59505 11.7285 2.01172C12.1452 2.42839 12.5065 2.89388 12.8125 3.4082C13.1185 3.92253 13.3496 4.4694 13.5059 5.04883C13.6621 5.62826 13.7435 6.23698 13.75 6.875C13.75 7.6888 13.6133 8.4668 13.3398 9.20898C13.0664 9.95117 12.6725 10.638 12.1582 11.2695L12.7148 11.8262C12.9883 12.0996 13.3203 12.4251 13.7109 12.8027C14.1016 13.1803 14.5247 13.5938 14.9805 14.043C15.4362 14.4922 15.8984 14.9512 16.3672 15.4199C16.8359 15.8887 17.2884 16.3444 17.7246 16.7871C18.1608 17.2298 18.5482 17.6302 18.8867 17.9883C19.2253 18.3464 19.4954 18.6426 19.6973 18.877C19.8991 19.1113 20 19.2578 20 19.3164ZM6.875 12.5C7.64974 12.5 8.37891 12.3535 9.0625 12.0605C9.74609 11.7676 10.3418 11.3639 10.8496 10.8496C11.3574 10.3353 11.7578 9.73958 12.0508 9.0625C12.3438 8.38542 12.4935 7.65625 12.5 6.875C12.5 6.10026 12.3535 5.37109 12.0605 4.6875C11.7676 4.00391 11.3639 3.4082 10.8496 2.90039C10.3353 2.39258 9.73958 1.99219 9.0625 1.69922C8.38542 1.40625 7.65625 1.25651 6.875 1.25C6.10026 1.25 5.37109 1.39648 4.6875 1.68945C4.00391 1.98242 3.4082 2.38607 2.90039 2.90039C2.39258 3.41471 1.99219 4.01042 1.69922 4.6875C1.40625 5.36458 1.25651 6.09375 1.25 6.875C1.25 7.64974 1.39648 8.37891 1.68945 9.0625C1.98242 9.74609 2.38607 10.3418 2.90039 10.8496C3.41471 11.3574 4.01042 11.7578 4.6875 12.0508C5.36458 12.3438 6.09375 12.4935 6.875 12.5Z" fill="#BDBDBD"/>
</svg>